<svg width="24" height="24" viewBox="0 0 24 24" fill="none" xmlns="http://www.w3.org/2000/svg">
<path d="M12 16.1667C12.4603 16.1667 12.8334 15.7936 12.8334 15.3333C12.8334 14.8731 12.4603 14.5 12 14.5C11.5398 14.5 11.1667 14.8731 11.1667 15.3333C11.1667 15.7936 11.5398 16.1667 12 16.1667Z" fill="#3b82f6" stroke="#3b82f6" stroke-width="2" stroke-linecap="round" stroke-linejoin="round"/>
<path d="M17.8333 10.3333H6.16667C5.24619 10.3333 4.5 11.0795 4.5 12V18.6666C4.5 19.5871 5.24619 20.3333 6.16667 20.3333H17.8333C18.7538 20.3333 19.5 19.5871 19.5 18.6666V12C19.5 11.0795 18.7538 10.3333 17.8333 10.3333Z" stroke="#3b82f6" stroke-width="2" stroke-linecap="round" stroke-linejoin="round"/>
<path d="M7.83331 10.3334V7.83335C7.83331 6.72828 8.2723 5.66848 9.0537 4.88708C9.8351 4.10567 10.8949 3.66669 12 3.66669C13.105 3.66669 14.1649 4.10567 14.9463 4.88708C15.7277 5.66848 16.1666 6.72828 16.1666 7.83335V10.3334" stroke="#3b82f6" stroke-width="2" stroke-linecap="round" stroke-linejoin="round"/>
</svg>